# xmcd
#
# Track frame offsets:
#	150
#	2445
#	4836
#	5773
#	28360
#	28993
#	49391
#	49767
#	81216
#	81614
#	102194
#	120613
#	121837
#	146020
#	146671
#	164735
#	165634
#	185245
#	186107
#	203167
#	204055
#	230147
#	230810
#	255845
#	257276
#	289414
#	296683
#
# Disc length: 4290 seconds
#
# Revision: 0
# Processed by: cddbd v1.5.1PL0 Copyright (c) Steve Scherf et al.
# Submitted via: EasyCDDAExtractor 7.1.3.1
#
DISCID=9110c01b
DTITLE=Janet Jackson - Janet
DYEAR=1993
DGENRE=Soul
TTITLE0=Morning
TTITLE1=That's The Way Love Goes
TTITLE2=You Know
TTITLE3=You Want This
TTITLE4=Be A Good Boy
TTITLE5=If
TTITLE6=Back
TTITLE7=This Time
TTITLE8=Go On Miss Janet
TTITLE9=Throb
TTITLE10=What'll I Do
TTITLE11=The Lounge
TTITLE12=Funky Big Band
TTITLE13=Racism
TTITLE14=New Agenda
TTITLE15=Love Pt. 2
TTITLE16=Because Of Love
TTITLE17=Wind
TTITLE18=Again
TTITLE19=Another Lover
TTITLE20=Where Are You Now
TTITLE21=Hold On Baby
TTITLE22=The Body That Loves You
TTITLE23=Rain
TTITLE24=Any Time, Any Place
TTITLE25=Are You Still Up
TTITLE26=Sweet Dreams
EXTD=
EXTT0=
EXTT1=
EXTT2=
EXTT3=
EXTT4=
EXTT5=
EXTT6=
EXTT7=
EXTT8=
EXTT9=
EXTT10=
EXTT11=
EXTT12=
EXTT13=
EXTT14=
EXTT15=
EXTT16=
EXTT17=
EXTT18=
EXTT19=
EXTT20=
EXTT21=
EXTT22=
EXTT23=
EXTT24=
EXTT25=
EXTT26=
PLAYORDER=
